<svg xmlns="http://www.w3.org/2000/svg" viewBox="0 0 340 214" width="100%" height="100%" preserveAspectRatio="none">
  <defs>
    <radialGradient id="redGlow" cx="60%" cy="30%" r="70%">
      <stop offset="0%" stop-color="#ff1a1a" />
      <stop offset="50%" stop-color="#b30000" />
      <stop offset="100%" stop-color="#400000" />
    </radialGradient>
  </defs>
  <rect width="340" height="214" fill="url(#redGlow)" />
  <polygon points="0.0,0.0 42.5,0.0 0.0,35.7" fill="#d10000" opacity="0.71" stroke="#d10000" stroke-width="0.3" />
  <polygon points="42.5,0.0 28.3,30.0 0.0,35.7" fill="#f30000" opacity="0.68" stroke="#f30000" stroke-width="0.3" />
  <polygon points="42.5,0.0 85.0,0.0 28.3,30.0" fill="#ff3333" opacity="0.74" stroke="#ff3333" stroke-width="0.3" />
  <polygon points="85.0,0.0 91.9,45.5 28.3,30.0" fill="#f30000" opacity="0.81" stroke="#f30000" stroke-width="0.3" />
  <polygon points="85.0,0.0 127.5,0.0 91.9,45.5" fill="#cc0000" opacity="0.87" stroke="#cc0000" stroke-width="0.3" />
  <polygon points="127.5,0.0 141.1,30.4 91.9,45.5" fill="#ff3333" opacity="0.91" stroke="#ff3333" stroke-width="0.3" />
  <polygon points="127.5,0.0 170.0,0.0 141.1,30.4" fill="#e60000" opacity="0.73" stroke="#e60000" stroke-width="0.3" />
  <polygon points="170.0,0.0 163.7,33.5 141.1,30.4" fill="#cc0000" opacity="0.83" stroke="#cc0000" stroke-width="0.3" />
  <polygon points="170.0,0.0 212.5,0.0 163.7,33.5" fill="#800000" opacity="0.71" stroke="#800000" stroke-width="0.3" />
  <polygon points="212.5,0.0 208.2,44.0 163.7,33.5" fill="#b30000" opacity="0.78" stroke="#b30000" stroke-width="0.3" />
  <polygon points="212.5,0.0 255.0,0.0 208.2,44.0" fill="#cc0000" opacity="0.72" stroke="#cc0000" stroke-width="0.3" />
  <polygon points="255.0,0.0 248.5,34.9 208.2,44.0" fill="#990000" opacity="0.68" stroke="#990000" stroke-width="0.3" />
  <polygon points="255.0,0.0 297.5,0.0 248.5,34.9" fill="#800000" opacity="0.84" stroke="#800000" stroke-width="0.3" />
  <polygon points="297.5,0.0 296.3,40.4 248.5,34.9" fill="#ff3333" opacity="0.77" stroke="#ff3333" stroke-width="0.3" />
  <polygon points="297.5,0.0 340.0,0.0 296.3,40.4" fill="#ff3333" opacity="0.78" stroke="#ff3333" stroke-width="0.3" />
  <polygon points="340.0,0.0 340.0,35.7 296.3,40.4" fill="#e60000" opacity="0.86" stroke="#e60000" stroke-width="0.3" />
  <polygon points="0.0,35.7 28.3,30.0 0.0,71.3" fill="#ff3333" opacity="0.74" stroke="#ff3333" stroke-width="0.3" />
  <polygon points="28.3,30.0 29.3,83.7 0.0,71.3" fill="#af0000" opacity="0.94" stroke="#af0000" stroke-width="0.3" />
  <polygon points="28.3,30.0 91.9,45.5 29.3,83.7" fill="#ff3333" opacity="0.87" stroke="#ff3333" stroke-width="0.3" />
  <polygon points="91.9,45.5 79.8,79.3 29.3,83.7" fill="#f30000" opacity="0.90" stroke="#f30000" stroke-width="0.3" />
  <polygon points="91.9,45.5 141.1,30.4 79.8,79.3" fill="#ff3333" opacity="0.92" stroke="#ff3333" stroke-width="0.3" />
  <polygon points="141.1,30.4 121.4,74.9 79.8,79.3" fill="#990000" opacity="0.74" stroke="#990000" stroke-width="0.3" />
  <polygon points="141.1,30.4 163.7,33.5 121.4,74.9" fill="#e60000" opacity="0.91" stroke="#e60000" stroke-width="0.3" />
  <polygon points="163.7,33.5 159.6,60.3 121.4,74.9" fill="#e60000" opacity="0.69" stroke="#e60000" stroke-width="0.3" />
  <polygon points="163.7,33.5 208.2,44.0 159.6,60.3" fill="#cc0000" opacity="0.78" stroke="#cc0000" stroke-width="0.3" />
  <polygon points="208.2,44.0 227.5,76.5 159.6,60.3" fill="#800000" opacity="0.66" stroke="#800000" stroke-width="0.3" />
  <polygon points="208.2,44.0 248.5,34.9 227.5,76.5" fill="#4d0000" opacity="0.68" stroke="#4d0000" stroke-width="0.3" />
  <polygon points="248.5,34.9 247.3,64.0 227.5,76.5" fill="#4d0000" opacity="0.82" stroke="#4d0000" stroke-width="0.3" />
  <polygon points="248.5,34.9 296.3,40.4 247.3,64.0" fill="#800000" opacity="0.92" stroke="#800000" stroke-width="0.3" />
  <polygon points="296.3,40.4 282.9,78.9 247.3,64.0" fill="#e60000" opacity="0.77" stroke="#e60000" stroke-width="0.3" />
  <polygon points="296.3,40.4 340.0,35.7 282.9,78.9" fill="#ff1a1a" opacity="0.83" stroke="#ff1a1a" stroke-width="0.3" />
  <polygon points="340.0,35.7 340.0,71.3 282.9,78.9" fill="#e60000" opacity="0.89" stroke="#e60000" stroke-width="0.3" />
  <polygon points="0.0,71.3 29.3,83.7 0.0,107.0" fill="#af0000" opacity="0.69" stroke="#af0000" stroke-width="0.3" />
  <polygon points="29.3,83.7 29.6,110.4 0.0,107.0" fill="#e20000" opacity="0.85" stroke="#e20000" stroke-width="0.3" />
  <polygon points="29.3,83.7 79.8,79.3 29.6,110.4" fill="#d10000" opacity="0.80" stroke="#d10000" stroke-width="0.3" />
  <polygon points="79.8,79.3 91.2,114.6 29.6,110.4" fill="#cc0000" opacity="0.67" stroke="#cc0000" stroke-width="0.3" />
  <polygon points="79.8,79.3 121.4,74.9 91.2,114.6" fill="#f30000" opacity="0.86" stroke="#f30000" stroke-width="0.3" />
  <polygon points="121.4,74.9 118.9,107.9 91.2,114.6" fill="#e60000" opacity="0.83" stroke="#e60000" stroke-width="0.3" />
  <polygon points="121.4,74.9 159.6,60.3 118.9,107.9" fill="#ff3333" opacity="0.89" stroke="#ff3333" stroke-width="0.3" />
  <polygon points="159.6,60.3 166.0,117.8 118.9,107.9" fill="#ff3333" opacity="0.78" stroke="#ff3333" stroke-width="0.3" />
  <polygon points="159.6,60.3 227.5,76.5 166.0,117.8" fill="#4d0000" opacity="0.75" stroke="#4d0000" stroke-width="0.3" />
  <polygon points="227.5,76.5 230.4,108.4 166.0,117.8" fill="#b30000" opacity="0.77" stroke="#b30000" stroke-width="0.3" />
  <polygon points="227.5,76.5 247.3,64.0 230.4,108.4" fill="#660000" opacity="0.83" stroke="#660000" stroke-width="0.3" />
  <polygon points="247.3,64.0 257.1,110.9 230.4,108.4" fill="#990000" opacity="0.93" stroke="#990000" stroke-width="0.3" />
  <polygon points="247.3,64.0 282.9,78.9 257.1,110.9" fill="#4d0000" opacity="0.77" stroke="#4d0000" stroke-width="0.3" />
  <polygon points="282.9,78.9 314.5,110.5 257.1,110.9" fill="#660000" opacity="0.86" stroke="#660000" stroke-width="0.3" />
  <polygon points="282.9,78.9 340.0,71.3 314.5,110.5" fill="#660000" opacity="0.70" stroke="#660000" stroke-width="0.3" />
  <polygon points="340.0,71.3 340.0,107.0 314.5,110.5" fill="#cc0000" opacity="0.73" stroke="#cc0000" stroke-width="0.3" />
  <polygon points="0.0,107.0 29.6,110.4 0.0,142.7" fill="#af0000" opacity="0.94" stroke="#af0000" stroke-width="0.3" />
  <polygon points="29.6,110.4 29.5,148.5 0.0,142.7" fill="#af0000" opacity="0.89" stroke="#af0000" stroke-width="0.3" />
  <polygon points="29.6,110.4 91.2,114.6 29.5,148.5" fill="#e60000" opacity="0.78" stroke="#e60000" stroke-width="0.3" />
  <polygon points="91.2,114.6 86.6,132.7 29.5,148.5" fill="#d10000" opacity="0.86" stroke="#d10000" stroke-width="0.3" />
  <polygon points="91.2,114.6 118.9,107.9 86.6,132.7" fill="#b30000" opacity="0.66" stroke="#b30000" stroke-width="0.3" />
  <polygon points="118.9,107.9 118.5,142.9 86.6,132.7" fill="#cc0000" opacity="0.76" stroke="#cc0000" stroke-width="0.3" />
  <polygon points="118.9,107.9 166.0,117.8 118.5,142.9" fill="#cc0000" opacity="0.72" stroke="#cc0000" stroke-width="0.3" />
  <polygon points="166.0,117.8 182.2,138.2 118.5,142.9" fill="#ff3333" opacity="0.69" stroke="#ff3333" stroke-width="0.3" />
  <polygon points="166.0,117.8 230.4,108.4 182.2,138.2" fill="#990000" opacity="0.89" stroke="#990000" stroke-width="0.3" />
  <polygon points="230.4,108.4 227.6,131.1 182.2,138.2" fill="#990000" opacity="0.70" stroke="#990000" stroke-width="0.3" />
  <polygon points="230.4,108.4 257.1,110.9 227.6,131.1" fill="#e60000" opacity="0.81" stroke="#e60000" stroke-width="0.3" />
  <polygon points="257.1,110.9 264.2,144.0 227.6,131.1" fill="#800000" opacity="0.84" stroke="#800000" stroke-width="0.3" />
  <polygon points="257.1,110.9 314.5,110.5 264.2,144.0" fill="#cc0000" opacity="0.81" stroke="#cc0000" stroke-width="0.3" />
  <polygon points="314.5,110.5 281.9,135.8 264.2,144.0" fill="#e60000" opacity="0.87" stroke="#e60000" stroke-width="0.3" />
  <polygon points="314.5,110.5 340.0,107.0 281.9,135.8" fill="#f30000" opacity="0.78" stroke="#f30000" stroke-width="0.3" />
  <polygon points="340.0,107.0 340.0,142.7 281.9,135.8" fill="#e60000" opacity="0.93" stroke="#e60000" stroke-width="0.3" />
  <polygon points="0.0,142.7 29.5,148.5 0.0,178.3" fill="#e20000" opacity="0.68" stroke="#e20000" stroke-width="0.3" />
  <polygon points="29.5,148.5 32.0,171.7 0.0,178.3" fill="#e20000" opacity="0.77" stroke="#e20000" stroke-width="0.3" />
  <polygon points="29.5,148.5 86.6,132.7 32.0,171.7" fill="#f30000" opacity="0.69" stroke="#f30000" stroke-width="0.3" />
  <polygon points="86.6,132.7 97.8,187.8 32.0,171.7" fill="#f30000" opacity="0.66" stroke="#f30000" stroke-width="0.3" />
  <polygon points="86.6,132.7 118.5,142.9 97.8,187.8" fill="#e20000" opacity="0.75" stroke="#e20000" stroke-width="0.3" />
  <polygon points="118.5,142.9 111.0,186.3 97.8,187.8" fill="#e20000" opacity="0.77" stroke="#e20000" stroke-width="0.3" />
  <polygon points="118.5,142.9 182.2,138.2 111.0,186.3" fill="#990000" opacity="0.86" stroke="#990000" stroke-width="0.3" />
  <polygon points="182.2,138.2 158.5,164.4 111.0,186.3" fill="#cc0000" opacity="0.65" stroke="#cc0000" stroke-width="0.3" />
  <polygon points="182.2,138.2 227.6,131.1 158.5,164.4" fill="#660000" opacity="0.66" stroke="#660000" stroke-width="0.3" />
  <polygon points="227.6,131.1 221.4,174.6 158.5,164.4" fill="#b30000" opacity="0.85" stroke="#b30000" stroke-width="0.3" />
  <polygon points="227.6,131.1 264.2,144.0 221.4,174.6" fill="#ff3333" opacity="0.79" stroke="#ff3333" stroke-width="0.3" />
  <polygon points="264.2,144.0 241.3,176.0 221.4,174.6" fill="#990000" opacity="0.90" stroke="#990000" stroke-width="0.3" />
  <polygon points="264.2,144.0 281.9,135.8 241.3,176.0" fill="#990000" opacity="0.91" stroke="#990000" stroke-width="0.3" />
  <polygon points="281.9,135.8 296.2,182.8 241.3,176.0" fill="#b30000" opacity="0.88" stroke="#b30000" stroke-width="0.3" />
  <polygon points="281.9,135.8 340.0,142.7 296.2,182.8" fill="#e60000" opacity="0.72" stroke="#e60000" stroke-width="0.3" />
  <polygon points="340.0,142.7 340.0,178.3 296.2,182.8" fill="#b30000" opacity="0.68" stroke="#b30000" stroke-width="0.3" />
  <polygon points="0.0,178.3 32.0,171.7 0.0,214.0" fill="#e20000" opacity="0.75" stroke="#e20000" stroke-width="0.3" />
  <polygon points="32.0,171.7 42.5,214.0 0.0,214.0" fill="#c00000" opacity="0.84" stroke="#c00000" stroke-width="0.3" />
  <polygon points="32.0,171.7 97.8,187.8 42.5,214.0" fill="#d10000" opacity="0.75" stroke="#d10000" stroke-width="0.3" />
  <polygon points="97.8,187.8 85.0,214.0 42.5,214.0" fill="#ff3333" opacity="0.73" stroke="#ff3333" stroke-width="0.3" />
  <polygon points="97.8,187.8 111.0,186.3 85.0,214.0" fill="#f30000" opacity="0.90" stroke="#f30000" stroke-width="0.3" />
  <polygon points="111.0,186.3 127.5,214.0 85.0,214.0" fill="#d10000" opacity="0.76" stroke="#d10000" stroke-width="0.3" />
  <polygon points="111.0,186.3 158.5,164.4 127.5,214.0" fill="#e20000" opacity="0.83" stroke="#e20000" stroke-width="0.3" />
  <polygon points="158.5,164.4 170.0,214.0 127.5,214.0" fill="#b30000" opacity="0.80" stroke="#b30000" stroke-width="0.3" />
  <polygon points="158.5,164.4 221.4,174.6 170.0,214.0" fill="#ff1a1a" opacity="0.71" stroke="#ff1a1a" stroke-width="0.3" />
  <polygon points="221.4,174.6 212.5,214.0 170.0,214.0" fill="#e60000" opacity="0.79" stroke="#e60000" stroke-width="0.3" />
  <polygon points="221.4,174.6 241.3,176.0 212.5,214.0" fill="#990000" opacity="0.91" stroke="#990000" stroke-width="0.3" />
  <polygon points="241.3,176.0 255.0,214.0 212.5,214.0" fill="#f30000" opacity="0.65" stroke="#f30000" stroke-width="0.3" />
  <polygon points="241.3,176.0 296.2,182.8 255.0,214.0" fill="#cc0000" opacity="0.91" stroke="#cc0000" stroke-width="0.3" />
  <polygon points="296.2,182.8 297.5,214.0 255.0,214.0" fill="#f30000" opacity="0.86" stroke="#f30000" stroke-width="0.3" />
  <polygon points="296.2,182.8 340.0,178.3 297.5,214.0" fill="#e20000" opacity="0.71" stroke="#e20000" stroke-width="0.3" />
  <polygon points="340.0,178.3 340.0,214.0 297.5,214.0" fill="#e20000" opacity="0.66" stroke="#e20000" stroke-width="0.3" />
</svg>